<?xml version="1.0" encoding="UTF-8"?>
<svg id="Camada_2" data-name="Camada 2" xmlns="http://www.w3.org/2000/svg" viewBox="0 0 152.99 196.45">
  <defs>
    <style>
      .cls-1 {
        fill: #bff205;
      }
    </style>
  </defs>
  <g id="Camada_1-2" data-name="Camada 1">
    <g>
      <path fill="#00FB5E" class="cls-1" d="M148.19,0c0,.14.09.29.29.35,2.36.68,3.99,2.62,4.51,4.93v55.19s-20.45.04-20.45.04V20.59s-112,0-112,0v39.93s-20.54,0-20.54,0V5.64C.51,3.14,2.16,1.07,4.55.38c.22-.06.29-.21.26-.38h143.38Z"/>
      <path fill="#00FB5E" class="cls-1" d="M152.99,89.74v101.41c-.57,2.57-2.85,5.27-5.79,5.27l-141.54.03c-3.02-.56-5.62-2.94-5.62-6.15l-.04-99.37c.42-2.88,2.49-5.51,5.46-5.73l8.82-.1,44.58-.04c.79,0,1.75-.36,2.22-.98,3.67-4.89,9.32-7.8,15.38-7.85s11.71,2.72,15.43,7.56c.62.8,1.53,1.27,2.56,1.27l18.39.03,34.7.08c2.19,0,4.91,2.33,5.45,4.58ZM132.52,108.36c-.36-1.47-1.48-2.77-3.08-2.77h-35c-.98-.01-1.85.58-2.4,1.3-3.69,4.91-9.4,7.77-15.47,7.76-6.02-.01-11.7-2.83-15.36-7.72-.53-.7-1.37-1.35-2.34-1.35H23.71c-1.76,0-3.15,1.53-3.15,3.26v63.72c0,1.77,1.34,3.36,3.18,3.36h105.82c1.6,0,2.97-1.64,2.97-3.18v-54.5s-.01-9.89-.01-9.89Z"/>
    </g>
  </g>
</svg>
